<svg width="56" height="56" viewBox="0 0 56 56" fill="none" xmlns="http://www.w3.org/2000/svg">
<rect width="56" height="56" fill="#00CC6A"/>
<mask id="mask0_98_9" style="mask-type:alpha" maskUnits="userSpaceOnUse" x="0" y="0" width="56" height="56">
<rect width="56" height="56" fill="#4485FD"/>
</mask>
<g mask="url(#mask0_98_9)">
<circle r="19" fill="#1AD37A"/>
</g>
<path d="M33.5744 16H22.4531C21.9981 16 21.6293 16.3688 21.6293 16.8238V20.8604C21.6293 21.3154 21.9981 21.6842 22.4531 21.6842H33.5744C34.0294 21.6842 34.3982 21.3154 34.3982 20.8604V16.8238C34.3982 16.3688 34.0294 16 33.5744 16ZM32.7506 20.0366H23.2769V17.6476H32.7506V20.0366H32.7506Z" fill="white"/>
<path d="M32.3936 20.8881H30.746V24.6775H32.3936V20.8881Z" fill="white"/>
<path d="M25.254 20.8881H23.6064V24.6775H25.254V20.8881Z" fill="white"/>
<path d="M33.9863 23.8535H22.0137C21.2567 23.8535 20.6407 24.4695 20.6407 25.2265V38.627C20.6407 39.3841 21.2567 40 22.0137 40H33.9863C34.7433 40 35.3593 39.3841 35.3593 38.627V25.2265C35.3593 24.4695 34.7433 23.8535 33.9863 23.8535ZM33.7117 38.3524H22.2883V25.5011H33.7117V38.3524Z" fill="white"/>
<path d="M28 28.1647C27.545 28.1647 27.1762 28.5334 27.1762 28.9885V34.8649C27.1762 35.3199 27.545 35.6887 28 35.6887C28.455 35.6887 28.8238 35.3199 28.8238 34.8649V28.9885C28.8238 28.5334 28.455 28.1647 28 28.1647Z" fill="white"/>
<path d="M30.9382 31.103H25.0618C24.6068 31.103 24.238 31.4718 24.238 31.9268C24.238 32.3818 24.6068 32.7506 25.0618 32.7506H30.9382C31.3935 32.7506 31.762 32.3818 31.762 31.9268C31.762 31.4718 31.3932 31.103 30.9382 31.103Z" fill="white"/>
</svg>
