<svg width="56" height="56" viewBox="0 0 56 56" fill="none" xmlns="http://www.w3.org/2000/svg">
<rect width="56" height="56" fill="#FD4444"/>
<g clip-path="url(#clip0_98_12)">
<path d="M36.3827 23.944L32.0557 19.617C31.7608 19.3224 31.2838 19.3221 30.989 19.6165L19.8444 30.7359L20.9105 31.8046L31.5216 21.2175L34.7824 24.4786L24.1955 35.0894L25.2639 36.1556L36.3834 25.0107C36.6775 24.7158 36.6773 24.2383 36.3827 23.944Z" fill="white"/>
<path d="M37.6659 19.3909L36.6094 18.3343C36.3633 18.0883 35.9814 18.0422 35.6841 18.2229L32.0363 20.4367L32.8194 21.727L35.9608 19.8203L36.1797 20.0394L34.2733 23.1808L35.5636 23.9639L37.7774 20.3161C37.958 20.0189 37.912 19.6367 37.6659 19.3909Z" fill="white"/>
<path d="M26.672 36.498L19.5022 29.3282C19.2076 29.0333 18.7296 29.0333 18.4351 29.3282C18.1402 29.6228 18.1402 30.1008 18.4351 30.3953L25.6049 37.5651C25.7521 37.7126 25.9452 37.7862 26.1384 37.7862C26.3314 37.7862 26.5249 37.7125 26.672 37.5651C26.9669 37.2706 26.9669 36.7926 26.672 36.498Z" fill="white"/>
<path d="M26.4836 29.9072L19.4402 36.9766L20.5093 38.0417L27.5527 30.9724L26.4836 29.9072Z" fill="white"/>
<path d="M25.0006 28.4242L17.9573 35.4935L19.0264 36.5587L26.0698 29.4894L25.0006 28.4242Z" fill="white"/>
<path d="M22.2695 38.7117L17.2883 33.7303C16.9935 33.4357 16.5155 33.4352 16.2209 33.7303C15.9263 34.0249 15.9263 34.5026 16.2209 34.7974L21.202 39.7788C21.3494 39.9263 21.5427 39.9999 21.7358 39.9999C21.9288 39.9999 22.1223 39.9262 22.2694 39.7788C22.5641 39.4843 22.5641 39.0065 22.2695 38.7117Z" fill="white"/>
<path d="M39.7789 16.2213C39.4841 15.9264 39.0066 15.9264 38.7117 16.2213L36.0702 18.8627C35.7754 19.1574 35.7754 19.6353 36.0702 19.9299C36.2176 20.0773 36.4106 20.151 36.6038 20.151C36.797 20.151 36.9902 20.0773 37.1374 19.9299L39.7789 17.2884C40.0737 16.9938 40.0737 16.5159 39.7789 16.2213Z" fill="white"/>
<path d="M24.7598 26.9879L23.6925 28.0552L27.9439 32.3066L29.0113 31.2393L24.7598 26.9879Z" fill="white"/>
</g>
<mask id="mask0_98_12" style="mask-type:alpha" maskUnits="userSpaceOnUse" x="0" y="0" width="56" height="56">
<rect width="56" height="56" fill="#4485FD"/>
</mask>
<g mask="url(#mask0_98_12)">
<circle r="19" fill="#FF7070"/>
</g>
<defs>
<clipPath id="clip0_98_12">
<rect width="24" height="24" fill="white" transform="translate(16 16)"/>
</clipPath>
</defs>
</svg>
