<svg width="56" height="58" viewBox="0 0 56 58" fill="none" xmlns="http://www.w3.org/2000/svg">
<rect width="56" height="56" fill="#A584FF"/>
<path d="M22.1571 17.4602C21.8711 17.0447 21.3029 16.9398 20.888 17.2254C20.2556 17.66 19.7583 18.1251 19.3671 18.6465C19.0681 19.0453 19.1445 19.6105 19.5384 19.9156C19.7044 20.0442 19.9013 20.1066 20.0965 20.1066C20.3645 20.1066 20.6298 19.9892 20.8096 19.7641C21.1189 19.3772 21.514 19.0097 21.922 18.7293C22.1796 18.5522 22.3177 18.2663 22.3177 17.9758C22.3177 17.7979 22.2654 17.6181 22.1571 17.4602Z" fill="black"/>
<path d="M37.8507 20.6586C37.2488 18.71 35.8535 17.2228 34.1278 16.6835C31.8994 15.9602 29.9441 16.4235 28.5701 17.0452C27.4882 16.3677 26.196 16 24.8728 16C23.4319 16 22.0539 16.4237 20.888 17.2253C20.3365 17.6046 19.823 18.08 19.402 18.602C19.3534 18.658 19.3172 18.7121 19.2895 18.7592C18.3052 20.049 17.7853 21.5763 17.7853 23.1787C17.7853 24.8885 18.3913 26.5418 19.493 27.8394C19.5204 27.8796 19.5511 27.9225 19.5821 27.966C19.6144 28.0113 19.6466 28.056 19.6725 28.0949C19.6819 28.1089 19.6916 28.1226 19.7017 28.136C20.1129 28.6844 20.5211 30.7781 20.6954 31.6721C20.7414 31.9082 20.7818 32.1156 20.8147 32.2698C20.9011 32.7017 20.9889 33.1687 21.0461 33.6553C21.2375 35.3143 21.5574 36.6701 21.9924 37.6733C22.5975 39.1255 23.4489 39.9069 24.5232 39.9963C24.5485 39.9984 24.574 39.9996 24.5993 39.9996H24.7209C26.0533 39.9996 26.7937 38.4669 27.3424 36.9672C27.3469 36.9544 27.3512 36.942 27.3552 36.9292L28.1056 34.5609L28.8381 36.9237C28.8426 36.9383 28.8472 36.9529 28.8527 36.9675C29.3692 38.3793 30.1342 40 31.4739 40H31.5955C31.6217 40 31.6482 39.9988 31.6743 39.9967C32.4129 39.9325 33.4508 39.4774 34.2012 37.6761C34.6091 36.7024 34.9096 35.4303 35.1478 33.6581C35.2056 33.1684 35.2935 32.7021 35.3777 32.2808C35.4124 32.1166 35.4529 31.9097 35.4988 31.6742C35.6728 30.7796 36.081 28.6854 36.4962 28.1318C38.1321 25.917 38.6373 23.12 37.8507 20.6586ZM35.0322 27.0415C34.4208 27.8576 34.0564 29.533 33.7075 31.3247C33.6637 31.5489 33.6253 31.7457 33.5904 31.9118C33.4964 32.3802 33.4006 32.8903 33.337 33.4296C33.1228 35.0236 32.8627 36.1484 32.5172 36.9722C32.2231 37.6785 31.8614 38.1241 31.5441 38.1749H31.5423C31.4437 38.0997 31.0839 37.7484 30.5744 36.3617L29.2427 32.0645C29.2375 32.0475 29.2317 32.0307 29.2256 32.0143C29.0492 31.5434 28.6121 31.2395 28.1123 31.2395C27.6125 31.2395 27.1757 31.5434 26.9993 32.0143C26.9938 32.0286 26.9887 32.0435 26.9838 32.0587L25.621 36.3589C25.0988 37.7813 24.7593 38.1073 24.665 38.1749H24.6474C24.213 38.1107 23.854 37.3974 23.6718 36.96C23.3083 36.1217 23.0273 34.9067 22.8587 33.4445C22.7936 32.8918 22.6978 32.3814 22.6017 31.902C22.5689 31.7457 22.5302 31.5482 22.4865 31.3234C22.1406 29.5479 21.7795 27.8862 21.1776 27.0631C21.1447 27.0144 21.1058 26.9603 21.0671 26.9058C21.0352 26.8611 21.0032 26.8167 20.9777 26.7783C20.957 26.7473 20.9345 26.7178 20.9102 26.6895C20.0721 25.7161 19.6104 24.4693 19.6104 23.1786C19.6104 21.9795 20.001 20.8349 20.7407 19.8658C20.7827 19.8162 20.8147 19.7687 20.8399 19.7265C21.1447 19.3535 21.5274 19.0004 21.9222 18.7291C22.7825 18.1377 23.8027 17.825 24.8728 17.825C25.9995 17.825 27.0894 18.1806 27.9414 18.8258C28.2246 19.0405 28.6066 19.071 28.9193 18.9049C29.9849 18.3412 31.6548 17.7995 33.5739 18.4218C34.7529 18.7905 35.6761 19.8016 36.1099 21.2051C36.7213 23.1185 36.3171 25.3022 35.0322 27.0415Z" fill="white"/>
<mask id="mask0_98_6" style="mask-type:alpha" maskUnits="userSpaceOnUse" x="0" y="2" width="56" height="56">
<rect y="2" width="56" height="56" fill="#4485FD"/>
</mask>
<g mask="url(#mask0_98_6)">
<circle cy="2" r="19" fill="#B79CFF"/>
</g>
</svg>
