<svg width="56" height="56" viewBox="0 0 56 56" fill="none" xmlns="http://www.w3.org/2000/svg">
<rect width="56" height="56" fill="#FD44B3"/>
<path d="M38.4113 30.8077L25.1624 17.5587C23.0874 15.4841 19.6842 15.4813 17.5699 17.5587C15.4767 19.6519 15.4767 23.0578 17.5699 25.1509L30.8188 38.3998C31.8654 39.4464 33.24 39.9697 34.6149 39.9697C35.9895 39.9697 37.3644 39.4464 38.4113 38.4001C40.5041 36.307 40.5041 32.9008 38.4113 30.8077ZM37.1252 37.1138C35.7409 38.4971 33.4889 38.4971 32.1049 37.1138L18.8563 23.8648C17.4722 22.4808 17.4722 20.2285 18.8505 18.8503C19.5512 18.1618 20.4662 17.8177 21.3775 17.8177C22.2862 17.8177 23.1911 18.1599 23.8763 18.8445L37.1252 32.0934C38.5089 33.4777 38.5089 35.7297 37.1252 37.1138Z" fill="white"/>
<path d="M38.411 17.5877C37.4035 16.5803 36.055 16.0251 34.6149 16.0251C33.1747 16.0251 31.8262 16.58 30.8187 17.5877L17.5699 30.8367C15.4767 32.9298 15.4767 36.3357 17.5699 38.4288C18.6165 39.4754 19.991 39.999 21.366 39.999C22.7409 39.999 24.1155 39.4758 25.1618 38.4288L38.441 25.1496C39.4524 24.1385 40.0063 22.7927 39.9999 21.3602C39.9939 19.9283 39.4275 18.5864 38.411 17.5877ZM37.1552 23.8636L23.876 37.1428C22.4916 38.5262 20.2397 38.5268 18.8559 37.1428C17.4722 35.7584 17.4722 33.5067 18.8559 32.1227L32.1049 18.8738C32.7961 18.1826 33.7041 17.8366 34.6127 17.8366C35.5235 17.8366 36.4352 18.1841 37.1307 18.8796C37.804 19.5414 38.1769 20.4252 38.1812 21.3681C38.1851 22.3116 37.8207 23.1977 37.1552 23.8636Z" fill="white"/>
<path d="M26.2471 27.4477C25.8833 27.0839 25.2466 27.0839 24.8828 27.4477C24.519 27.8115 24.519 28.4482 24.8828 28.812C25.2466 29.1758 25.8833 29.1758 26.2471 28.812C26.6413 28.4178 26.6413 27.8115 26.2471 27.4477Z" fill="white"/>
<path d="M26.352 27.3381C25.9315 26.9197 25.1954 26.92 24.7755 27.3402C24.355 27.761 24.355 28.4986 24.7755 28.9191C24.9859 29.1292 25.2754 29.2344 25.565 29.2344C25.8545 29.2344 26.144 29.1295 26.3542 28.9191C26.5795 28.6939 26.7001 28.4016 26.694 28.0966C26.6883 27.8065 26.5667 27.5373 26.352 27.3381ZM26.1401 28.7048C25.8339 29.0107 25.2963 29.011 24.9902 28.7048C24.684 28.3986 24.684 27.8611 24.9902 27.5549C25.1432 27.4018 25.354 27.3254 25.565 27.3254C25.776 27.3254 25.987 27.4018 26.1401 27.5549L26.1444 27.5591C26.2993 27.7019 26.3869 27.8951 26.3912 28.103C26.3957 28.3246 26.3066 28.5384 26.1401 28.7048Z" fill="white"/>
<path d="M28.5513 29.7517C28.1875 29.3879 27.5508 29.3879 27.187 29.7517C26.8232 30.1155 26.8232 30.7522 27.187 31.116C27.5508 31.4798 28.1875 31.4798 28.5513 31.116C28.9454 30.7522 28.9454 30.1155 28.5513 29.7517Z" fill="white"/>
<path d="M28.6565 29.6422C28.4549 29.4418 28.1681 29.3269 27.8691 29.3269C27.569 29.3269 27.2813 29.4424 27.0797 29.6443C26.878 29.8462 26.7625 30.1337 26.7625 30.4338C26.7625 30.734 26.8778 31.0217 27.0797 31.2233C27.2816 31.4249 27.5693 31.5407 27.8691 31.5407C28.169 31.5407 28.457 31.4249 28.6541 31.227C28.873 31.0251 28.9985 30.7358 28.9985 30.4335C28.9985 30.1324 28.8739 29.8441 28.6565 29.6422ZM28.4442 31.0086C28.1381 31.3148 27.6008 31.3148 27.2943 31.0086C27.1491 30.8634 27.066 30.6539 27.066 30.4338C27.066 30.2136 27.1491 30.0042 27.2943 29.8589C27.4474 29.7058 27.6581 29.6291 27.8691 29.6291C28.0802 29.6291 28.2912 29.7058 28.4442 29.8586L28.4488 29.8629C28.6052 30.0078 28.6953 30.2161 28.6953 30.4338C28.6953 30.6515 28.6053 30.8597 28.4442 31.0086Z" fill="white"/>
<path d="M28.8241 24.8706C28.4603 24.5068 27.8236 24.5068 27.4598 24.8706C27.096 25.2344 27.096 25.8711 27.4598 26.2349C27.8236 26.5987 28.4603 26.5987 28.8241 26.2349C29.1879 25.8711 29.188 25.2344 28.8241 24.8706Z" fill="white"/>
<path d="M28.9315 24.7631C28.5109 24.3426 27.773 24.3426 27.3525 24.7631C26.932 25.1837 26.932 25.9213 27.3525 26.3418C27.5626 26.5522 27.8522 26.6574 28.142 26.6574C28.4318 26.6574 28.7214 26.5522 28.9315 26.3418C29.3517 25.9213 29.3517 25.1837 28.9315 24.7631ZM28.7168 26.1278C28.4261 26.4182 27.8573 26.4182 27.5669 26.1278C27.2607 25.8216 27.2607 25.284 27.5669 24.9778C27.72 24.8247 27.931 24.7483 28.142 24.7483C28.353 24.7483 28.564 24.8247 28.7168 24.9778C29.023 25.2843 29.023 25.8215 28.7168 26.1278Z" fill="white"/>
<path d="M31.1283 27.1746C30.7645 26.8108 30.1278 26.8108 29.764 27.1746C29.4002 27.5384 29.4002 28.1751 29.764 28.5389C30.1278 28.9027 30.7645 28.9027 31.1283 28.5389C31.5224 28.175 31.5224 27.5687 31.1283 27.1746Z" fill="white"/>
<path d="M31.2357 27.0674C31.0338 26.8658 30.7463 26.75 30.4462 26.75C30.146 26.75 29.8583 26.8655 29.6567 27.0674C29.4551 27.2694 29.3393 27.5568 29.3393 27.8569C29.3393 28.1571 29.4548 28.4448 29.6567 28.6464C29.8586 28.848 30.1463 28.9638 30.4462 28.9638C30.746 28.9638 31.034 28.848 31.2311 28.6501C31.4473 28.4506 31.5695 28.1804 31.5755 27.8894C31.5816 27.5847 31.4609 27.2927 31.2357 27.0674ZM31.0213 28.4318C30.7151 28.7379 30.1775 28.7379 29.8714 28.4318C29.7261 28.2865 29.6427 28.077 29.6427 27.8569C29.6427 27.6368 29.7261 27.4273 29.8714 27.2821C30.0242 27.129 30.2355 27.0523 30.4462 27.0523C30.6569 27.0523 30.8682 27.1289 31.0213 27.2818C31.1878 27.4479 31.2769 27.6616 31.2723 27.8833C31.2681 28.0913 31.1805 28.2847 31.0213 28.4318Z" fill="white"/>
<mask id="mask0_98_11" style="mask-type:alpha" maskUnits="userSpaceOnUse" x="0" y="0" width="56" height="56">
<rect width="56" height="56" fill="#4485FD"/>
</mask>
<g mask="url(#mask0_98_11)">
<circle r="19" fill="#FF71C6"/>
</g>
</svg>
