<svg width="56" height="56" viewBox="0 0 56 56" fill="none" xmlns="http://www.w3.org/2000/svg">
<rect width="56" height="56" fill="#00C9E4"/>
<path d="M38.9939 31.0476C38.9729 31.0195 38.9503 30.9934 38.9261 30.9684C38.2285 30.096 36.9672 29.9208 36.0878 30.5809C34.8203 31.5151 32.6518 33.087 31.928 33.6117L28.7664 33.3638L30.7008 32.9404C31.737 32.7896 32.4799 31.8753 32.435 30.7962C32.4347 30.7847 32.4339 30.7733 32.4328 30.7621C32.343 29.6838 31.4668 28.8707 30.395 28.8707H24.5447C24.0693 28.8707 23.6258 28.9924 23.2263 29.2321C23.2103 29.2419 23.1945 29.252 23.179 29.2628L16.9477 33.6166C16.5782 33.8748 16.4878 34.3839 16.746 34.7532C17.004 35.123 17.5134 35.2136 17.8826 34.9548L24.0878 30.6193C24.226 30.5412 24.3757 30.5028 24.5449 30.5028H30.3952C30.6123 30.5028 30.7783 30.6573 30.8045 30.8804C30.8064 31.0769 30.7006 31.2952 30.4573 31.3256C30.4328 31.3286 30.4083 31.3327 30.3841 31.3381L26.9011 32.1C26.6292 32.1596 26.4064 32.3534 26.3098 32.6143C26.2132 32.8755 26.2562 33.1678 26.4241 33.3898L27.3492 34.6143C27.4899 34.8007 27.7038 34.9179 27.9367 34.9362L32.1 35.2627C32.2926 35.2766 32.4856 35.2235 32.6423 35.11C32.6708 35.0894 35.5201 33.027 37.0616 31.891C37.2377 31.759 37.5176 31.8091 37.66 31.9995C37.6758 32.0205 37.6926 32.0409 37.7103 32.06C37.8199 32.2393 37.778 32.4692 37.6042 32.5995L32.0823 36.7616C31.9199 36.8832 31.7507 36.9295 31.5572 36.9039L23.5027 35.8971C23.2829 35.8696 23.0619 35.9325 22.8894 36.0712L19.8146 38.5477C19.4633 38.8307 19.408 39.3447 19.6908 39.6957C19.8519 39.896 20.0883 39.9999 20.327 39.9999C20.5068 39.9999 20.6878 39.9409 20.8383 39.8198L23.6435 37.5605L31.3477 38.5235C31.9622 38.6054 32.5542 38.4478 33.0628 38.0669L38.5855 33.905C39.4859 33.2296 39.669 31.948 38.9939 31.0476Z" fill="white"/>
<path d="M31.7278 18.8301C31.2769 18.8301 30.9115 19.1955 30.9115 19.6464V24.5444C30.9115 24.9953 31.2769 25.3607 31.7278 25.3607C32.1787 25.3607 32.5441 24.9953 32.5441 24.5444V19.6464C32.5441 19.1955 32.1787 18.8301 31.7278 18.8301Z" fill="white"/>
<path d="M34.1768 21.2788H29.2788C28.8279 21.2788 28.4625 21.6442 28.4625 22.0951C28.4625 22.546 28.8279 22.9115 29.2788 22.9115H34.1768C34.6277 22.9115 34.9931 22.546 34.9931 22.0951C34.9931 21.6442 34.6277 21.2788 34.1768 21.2788Z" fill="white"/>
<path d="M31.7278 16C28.3667 16 25.6328 18.7342 25.6328 22.0953C25.6328 25.4563 28.3667 28.1905 31.7278 28.1905C35.0886 28.1905 37.823 25.4564 37.823 22.0953C37.823 18.7341 35.0889 16 31.7278 16ZM31.7278 26.5578C29.2671 26.5578 27.2655 24.556 27.2655 22.0953C27.2655 19.6345 29.2671 17.6327 31.7278 17.6327C34.1884 17.6327 36.1904 19.6345 36.1904 22.0953C36.1904 24.556 34.1885 26.5578 31.7278 26.5578Z" fill="white"/>
<mask id="mask0_98_10" style="mask-type:alpha" maskUnits="userSpaceOnUse" x="0" y="0" width="56" height="56">
<rect width="56" height="56" fill="#4485FD"/>
</mask>
<g mask="url(#mask0_98_10)">
<circle r="19" fill="#05D1ED"/>
</g>
</svg>
