<svg width="56" height="56" viewBox="0 0 56 56" fill="none" xmlns="http://www.w3.org/2000/svg">
<rect width="56" height="56" fill="#4485FD"/>
<g clip-path="url(#clip0_65_3)">
<path d="M33.5017 17.1428H30.9236V18.7375H32.7044V22.299C32.7044 24.981 30.5223 27.1628 27.8406 27.1628H27.4685C24.7865 27.1628 22.6047 24.9807 22.6047 22.299V18.7375H24.3854V17.1428H21.8073C21.3669 17.1428 21.01 17.4998 21.01 17.9402V22.299C21.01 25.8602 23.9073 28.7575 27.4685 28.7575H27.8406C31.4017 28.7575 34.299 25.8602 34.299 22.299V17.9402C34.299 17.4998 33.9421 17.1428 33.5017 17.1428Z" fill="white"/>
<path d="M30.8439 16C30.4035 16 30.0465 16.357 30.0465 16.7973V19.0299C30.0465 19.4703 30.4035 19.8273 30.8439 19.8273C31.2843 19.8273 31.6412 19.4703 31.6412 19.0299V16.7973C31.6412 16.357 31.2843 16 30.8439 16Z" fill="white"/>
<path d="M24.5448 16C24.1044 16 23.7475 16.357 23.7475 16.7973V19.0299C23.7475 19.4703 24.1044 19.8273 24.5448 19.8273C24.9852 19.8273 25.3422 19.4703 25.3422 19.0299V16.7973C25.3422 16.357 24.9852 16 24.5448 16Z" fill="white"/>
<path d="M28.505 32.4522V27.9339H26.9103V32.4522H24.3322C22.2512 32.4522 20.5581 34.1452 20.5581 36.226C20.5581 38.3071 22.2631 40.0001 24.3588 40.0001H24.7309C26.812 40.0001 28.505 38.3071 28.505 36.226V34.0469H31.216V32.4522H28.505ZM26.9103 36.2257C26.9103 37.4273 25.9325 38.4052 24.7309 38.4052H24.3588C23.1219 38.4052 22.1528 37.4481 22.1528 36.2257C22.1528 35.0242 23.1306 34.0466 24.3322 34.0466H26.9103V36.2257Z" fill="white"/>
<path d="M32.9436 30.7511C31.5663 30.7511 30.4455 31.8717 30.4455 33.2495C30.4455 34.6268 31.566 35.7476 32.9436 35.7476C34.3211 35.7476 35.4419 34.6268 35.4419 33.2495C35.4419 31.8719 34.3214 30.7511 32.9436 30.7511ZM32.9436 34.1526C32.4455 34.1526 32.0402 33.7473 32.0402 33.2493C32.0402 32.7509 32.4455 32.3456 32.9436 32.3456C33.4419 32.3456 33.8472 32.7509 33.8472 33.2493C33.8472 33.7473 33.4419 34.1526 32.9436 34.1526Z" fill="white"/>
</g>
<g clip-path="url(#clip1_65_3)">
<path d="M33.5017 17.1428H30.9236V18.7375H32.7044V22.299C32.7044 24.981 30.5223 27.1628 27.8406 27.1628H27.4685C24.7865 27.1628 22.6047 24.9807 22.6047 22.299V18.7375H24.3854V17.1428H21.8073C21.3669 17.1428 21.01 17.4998 21.01 17.9402V22.299C21.01 25.8602 23.9073 28.7575 27.4685 28.7575H27.8406C31.4017 28.7575 34.299 25.8602 34.299 22.299V17.9402C34.299 17.4998 33.9421 17.1428 33.5017 17.1428Z" fill="white"/>
<path d="M30.8439 16C30.4035 16 30.0465 16.357 30.0465 16.7973V19.0299C30.0465 19.4703 30.4035 19.8273 30.8439 19.8273C31.2843 19.8273 31.6412 19.4703 31.6412 19.0299V16.7973C31.6412 16.357 31.2843 16 30.8439 16Z" fill="white"/>
<path d="M24.5448 16C24.1044 16 23.7475 16.357 23.7475 16.7973V19.0299C23.7475 19.4703 24.1044 19.8273 24.5448 19.8273C24.9852 19.8273 25.3422 19.4703 25.3422 19.0299V16.7973C25.3422 16.357 24.9852 16 24.5448 16Z" fill="white"/>
<path d="M28.505 32.4522V27.9339H26.9103V32.4522H24.3322C22.2512 32.4522 20.5581 34.1452 20.5581 36.226C20.5581 38.3071 22.2631 40.0001 24.3588 40.0001H24.7309C26.812 40.0001 28.505 38.3071 28.505 36.226V34.0469H31.216V32.4522H28.505ZM26.9103 36.2257C26.9103 37.4273 25.9325 38.4052 24.7309 38.4052H24.3588C23.1219 38.4052 22.1528 37.4481 22.1528 36.2257C22.1528 35.0242 23.1306 34.0466 24.3322 34.0466H26.9103V36.2257Z" fill="white"/>
<path d="M32.9436 30.7511C31.5663 30.7511 30.4455 31.8717 30.4455 33.2495C30.4455 34.6268 31.566 35.7476 32.9436 35.7476C34.3211 35.7476 35.4419 34.6268 35.4419 33.2495C35.4419 31.8719 34.3214 30.7511 32.9436 30.7511ZM32.9436 34.1526C32.4455 34.1526 32.0402 33.7473 32.0402 33.2493C32.0402 32.7509 32.4455 32.3456 32.9436 32.3456C33.4419 32.3456 33.8472 32.7509 33.8472 33.2493C33.8472 33.7473 33.4419 34.1526 32.9436 34.1526Z" fill="white"/>
</g>
<mask id="mask0_65_3" style="mask-type:alpha" maskUnits="userSpaceOnUse" x="0" y="0" width="56" height="56">
<rect width="56" height="56" fill="#4485FD"/>
</mask>
<g mask="url(#mask0_65_3)">
<circle r="19" fill="#639AFF"/>
</g>
<defs>
<clipPath id="clip0_65_3">
<rect width="24" height="24" fill="white" transform="translate(16 16)"/>
</clipPath>
<clipPath id="clip1_65_3">
<rect width="24" height="24" fill="white" transform="translate(16 16)"/>
</clipPath>
</defs>
</svg>
