<svg width="56" height="56" viewBox="0 0 56 56" fill="none" xmlns="http://www.w3.org/2000/svg">
<rect width="56" height="56" fill="#FEA725"/>
<mask id="mask0_98_8" style="mask-type:alpha" maskUnits="userSpaceOnUse" x="0" y="0" width="56" height="56">
<rect width="56" height="56" fill="#4485FD"/>
</mask>
<g mask="url(#mask0_98_8)">
<circle r="19" fill="#FFB547"/>
</g>
<g clip-path="url(#clip0_98_8)">
<path d="M34.7816 28.9832V37.5799H21.2186V28.8068H19.706V38.3362C19.706 38.7539 20.0446 39.0924 20.4623 39.0924H35.538C35.9557 39.0924 36.2942 38.7539 36.2942 38.3362V28.9832H34.7816Z" fill="white"/>
<path d="M39.9976 27.5615C39.981 27.3533 39.8789 27.1612 39.7155 27.0308L28.4718 18.056C28.1955 17.8357 27.804 17.8357 27.5282 18.056L16.2845 27.0308C16.1211 27.1612 16.019 27.3533 16.0024 27.5615C15.9857 27.7697 16.0561 27.9757 16.1965 28.1303L18.4402 30.6008C18.589 30.7647 18.7942 30.8487 19.0004 30.8487C19.1665 30.8487 19.3339 30.794 19.4728 30.6828L28.0001 23.8514L36.5269 30.6828C36.8393 30.9319 37.2913 30.897 37.5598 30.6008L39.8035 28.1303C39.9442 27.9757 40.0143 27.7697 39.9976 27.5615ZM36.918 29.0575L28.4728 22.2921C28.3349 22.1814 28.1675 22.126 28.0001 22.126C27.8327 22.126 27.6654 22.1814 27.5272 22.2921L19.0818 29.0575L17.8581 27.71L28.0001 19.6145L38.1419 27.71L36.918 29.0575Z" fill="white"/>
<path d="M35.0085 16.9077H32.0335C31.6157 16.9077 31.2772 17.2463 31.2772 17.664V21.9497H32.7898V18.4203H34.2522V24.2186H35.7649V17.664C35.7649 17.2462 35.4263 16.9077 35.0085 16.9077Z" fill="white"/>
<path d="M28.0001 28.9832C27.5824 28.9832 27.2439 29.3217 27.2439 29.7394V34.8319C27.2439 35.2496 27.5824 35.5882 28.0001 35.5882C28.4178 35.5882 28.7562 35.2496 28.7564 34.8319V29.7394C28.7564 29.3217 28.4178 28.9832 28.0001 28.9832Z" fill="white"/>
<path d="M30.5463 31.5293H25.4539C25.0362 31.5293 24.6977 31.8679 24.6977 32.2856C24.6977 32.7033 25.0362 33.0419 25.4539 33.0419H30.5464C30.9641 33.0419 31.3027 32.7033 31.3027 32.2856C31.3027 31.8679 30.9641 31.5293 30.5463 31.5293Z" fill="white"/>
</g>
<defs>
<clipPath id="clip0_98_8">
<rect width="24" height="24" fill="white" transform="translate(16 16)"/>
</clipPath>
</defs>
</svg>
