<svg width="56" height="56" viewBox="0 0 56 56" fill="none" xmlns="http://www.w3.org/2000/svg">
<rect width="56" height="56" fill="#FF7854"/>
<path d="M37.8898 19.3413C36.6794 18.1177 35.0442 17.4412 33.2855 17.4362C31.4754 17.4301 29.6613 18.116 28.2078 19.3353C26.5548 17.8796 25.0595 17.1698 23.6514 17.1698C21.6849 17.1698 19.8604 17.9443 18.5264 19.3383C17.5237 20.341 16.8367 21.6574 16.5389 23.1456C16.4498 23.5928 16.7395 24.0277 17.1868 24.1171C17.6335 24.2058 18.0689 23.9165 18.1584 23.4692C18.3918 22.302 18.9227 21.2773 19.7066 20.4932C20.7387 19.4148 22.1399 18.8212 23.6514 18.8212C24.7466 18.8212 26.0732 19.5591 27.5804 20.9999C27.7494 21.1697 27.9714 21.2635 28.2057 21.2638C28.206 21.2638 28.2065 21.2638 28.2068 21.2638C28.4404 21.2638 28.6625 21.1705 28.8318 21.0013C30.0486 19.7845 31.6642 19.0876 33.266 19.0876C33.2713 19.0876 33.2762 19.0876 33.2812 19.0876C34.616 19.0912 35.8039 19.5808 36.7067 20.4932C37.7657 21.5993 38.349 23.0482 38.349 24.5735C38.349 26.0999 37.7525 27.5848 36.7292 28.6312L28.2202 36.8566L21.4729 30.3376C21.1451 30.0208 20.6225 30.0304 20.3054 30.3574C19.9886 30.6855 19.9977 31.2081 20.3255 31.5249L27.6466 38.5983C27.8065 38.753 28.0135 38.8303 28.2202 38.8303C28.4268 38.8303 28.6338 38.753 28.794 38.5986L37.8931 29.8022C39.2321 28.4335 40 26.5278 40 24.5734C40 22.6207 39.2538 20.7659 37.8898 19.3413Z" fill="white"/>
<path d="M38.5138 26.4726H31.8532C31.6259 26.4726 31.409 26.5658 31.2532 26.731L28.7494 29.3784L25.8656 22.8368C25.7417 22.5558 25.472 22.3667 25.1657 22.3461C24.861 22.3265 24.5668 22.4765 24.4063 22.7383L22.1159 26.4726H16.8257C16.3696 26.4726 16 26.8422 16 27.2983C16 27.7544 16.3696 28.124 16.8257 28.124H22.5777C22.8648 28.124 23.1315 27.9748 23.2815 27.7298L24.9902 24.9445L27.74 31.1818C27.8515 31.435 28.0824 31.6153 28.3548 31.6623C28.4016 31.6703 28.4487 31.6744 28.4955 31.6744C28.7206 31.6744 28.9383 31.5825 29.0955 31.4162L32.2089 28.1239H38.5138C38.9699 28.1239 39.3395 27.7543 39.3395 27.2982C39.3394 26.8422 38.9698 26.4726 38.5138 26.4726Z" fill="white"/>
<mask id="mask0_98_7" style="mask-type:alpha" maskUnits="userSpaceOnUse" x="0" y="0" width="56" height="56">
<rect width="56" height="56" fill="#4485FD"/>
</mask>
<g mask="url(#mask0_98_7)">
<circle r="19" fill="#FFA188"/>
</g>
</svg>
